  0
SECTION
  2
HEADER
  9
$ACADVER
  1
AC1014
  9
$HANDSEED
  5
FFFF
  9
$INSUNITS
 70
     4
  9
$MEASUREMENT
 70
     1
  0
ENDSEC
  0
SECTION
  2
TABLES
  0
TABLE
  2
VPORT
  5
8
330
0
100
AcDbSymbolTable
 70
     4
  0
VPORT
  5
2E
330
8
100
AcDbSymbolTableRecord
100
AcDbViewportTableRecord
  2
*ACTIVE
 70
     0
 10
0.0
 20
0.0
 11
1.0
 21
1.0
 12
210.0
 22
148.5
 13
0.0
 23
0.0
 14
10.0
 24
10.0
 15
10.0
 25
10.0
 16
0.0
 26
0.0
 36
1.0
 17
0.0
 27
0.0
 37
0.0
 40
341.0
 41
1.24
 42
50.0
 43
0.0
 44
0.0
 50
0.0
 51
0.0
 71
     0
 72
   100
 73
     1
 74
     3
 75
     0
 76
     0
 77
     0
 78
     0
  0
ENDTAB
  0
TABLE
  2
LTYPE
  5
5
330
0
100
AcDbSymbolTable
 70
     1
  0
LTYPE
  5
14
330
5
100
AcDbSymbolTableRecord
100
AcDbLinetypeTableRecord
  2
BYBLOCK
 70
     0
  3

 72
    65
 73
     0
 40
0.0
  0
LTYPE
  5
15
330
5
100
AcDbSymbolTableRecord
100
AcDbLinetypeTableRecord
  2
BYLAYER
 70
     0
  3

 72
    65
 73
     0
 40
0.0
  0
LTYPE
  5
16
330
5
100
AcDbSymbolTableRecord
100
AcDbLinetypeTableRecord
  2
CONTINUOUS
 70
     0
  3
Solid line
 72
    65
 73
     0
 40
0.0
  0
ENDTAB
  0
TABLE
  2
LAYER
  5
2
100
AcDbSymbolTable
 70
4
  0
LAYER
  5
50
100
AcDbSymbolTableRecord
100
AcDbLayerTableRecord
  2
0
 70
0
  6
CONTINUOUS
  0
LAYER
  5
51
100
AcDbSymbolTableRecord
100
AcDbLayerTableRecord
  2
Panel
 70
0
  6
CONTINUOUS
  0
LAYER
  5
52
100
AcDbSymbolTableRecord
100
AcDbLayerTableRecord
  2
Cutouts
 70
0
  6
CONTINUOUS
  0
LAYER
  5
53
100
AcDbSymbolTableRecord
100
AcDbLayerTableRecord
  2
Decals
 70
0
  6
CONTINUOUS
  0
ENDTAB
  0
TABLE
  2
STYLE
  5
3
330
0
100
AcDbSymbolTable
 70
     1
  0
STYLE
  5
11
330
3
100
AcDbSymbolTableRecord
100
AcDbTextStyleTableRecord
  2
STANDARD
 70
     0
 40
0.0
 41
1.0
 50
0.0
 71
     0
 42
2.5
  3
txt
  4

  0
ENDTAB
  0
TABLE
  2
VIEW
  5
6
330
0
100
AcDbSymbolTable
 70
     0
  0
ENDTAB
  0
TABLE
  2
UCS
  5
7
330
0
100
AcDbSymbolTable
 70
     0
  0
ENDTAB
  0
TABLE
  2
APPID
  5
9
330
0
100
AcDbSymbolTable
 70
     2
  0
APPID
  5
12
330
9
100
AcDbSymbolTableRecord
100
AcDbRegAppTableRecord
  2
ACAD
 70
     0
  0
ENDTAB
  0
TABLE
  2
DIMSTYLE
  5
A
330
0
100
AcDbSymbolTable
 70
     1
  0
DIMSTYLE
105
27
330
A
100
AcDbSymbolTableRecord
100
AcDbDimStyleTableRecord
  2
ISO-25
 70
     0
  3

  4

  5

  6

  7

 40
1.0
 41
2.5
 42
0.625
 43
3.75
 44
1.25
 45
0.0
 46
0.0
 47
0.0
 48
0.0
140
2.5
141
2.5
142
0.0
143
0.03937007874016
144
1.0
145
0.0
146
1.0
147
0.625
 71
     0
 72
     0
 73
     0
 74
     0
 75
     0
 76
     0
 77
     1
 78
     8
170
     0
171
     3
172
     1
173
     0
174
     0
175
     0
176
     0
177
     0
178
     0
270
     2
271
     2
272
     2
273
     2
274
     3
340
11
275
     0
280
     0
281
     0
282
     0
283
     0
284
     8
285
     0
286
     0
287
     3
288
     0
  0
ENDTAB
  0
TABLE
  2
BLOCK_RECORD
  5
1
330
0
100
AcDbSymbolTable
 70
     1
  0
BLOCK_RECORD
  5
1F
330
1
100
AcDbSymbolTableRecord
100
AcDbBlockTableRecord
  2
*MODEL_SPACE
  0
BLOCK_RECORD
  5
1B
330
1
100
AcDbSymbolTableRecord
100
AcDbBlockTableRecord
  2
*PAPER_SPACE
  0
ENDTAB
  0
ENDSEC
  0
SECTION
  2
BLOCKS
  0
BLOCK
  5
20
330
1F
100
AcDbEntity
  8
0
100
AcDbBlockBegin
  2
*MODEL_SPACE
 70
     0
 10
0.0
 20
0.0
 30
0.0
  3
*MODEL_SPACE
  1

  0
ENDBLK
  5
21
330
1F
100
AcDbEntity
  8
0
100
AcDbBlockEnd
  0
BLOCK
  5
1C
330
1B
100
AcDbEntity
 67
     1
  8
0
100
AcDbBlockBegin
  2
*PAPER_SPACE
  1

  0
ENDBLK
  5
1D
330
1B
100
AcDbEntity
 67
     1
  8
0
100
AcDbBlockEnd
  0
ENDSEC
  0
SECTION
  2
ENTITIES
  0
SPLINE
  5
100
100
AcDbEntity
  8
Panel
 62
7
100
AcDbSpline
 70
8
 71
3
 72
8
 73
4
 74
0
 40
0
 40
0
 40
0
 40
0
 40
1
 40
1
 40
1
 40
1
 10
53.846326
 20
223.682511
 30
0.0
 10
54.475196
 20
223.682630
 30
0.0
 10
54.985107
 20
223.172951
 30
0.0
 10
54.985274
 20
222.544080
 30
0.0
  0
SPLINE
  5
101
100
AcDbEntity
  8
Panel
 62
7
100
AcDbSpline
 70
8
 71
3
 72
8
 73
4
 74
0
 40
0
 40
0
 40
0
 40
0
 40
1
 40
1
 40
1
 40
1
 10
54.985274
 20
222.544080
 30
0.0
 10
54.985331
 20
222.241994
 30
0.0
 10
54.865353
 20
221.952265
 30
0.0
 10
54.651747
 20
221.738658
 30
0.0
  0
SPLINE
  5
102
100
AcDbEntity
  8
Panel
 62
7
100
AcDbSpline
 70
8
 71
3
 72
8
 73
4
 74
0
 40
0
 40
0
 40
0
 40
0
 40
1
 40
1
 40
1
 40
1
 10
54.651747
 20
221.738658
 30
0.0
 10
54.438140
 20
221.525051
 30
0.0
 10
54.148411
 20
221.405074
 30
0.0
 10
53.846326
 20
221.405131
 30
0.0
  0
SPLINE
  5
103
100
AcDbEntity
  8
Panel
 62
7
100
AcDbSpline
 70
8
 71
3
 72
8
 73
4
 74
0
 40
0
 40
0
 40
0
 40
0
 40
1
 40
1
 40
1
 40
1
 10
53.846326
 20
221.405131
 30
0.0
 10
53.217455
 20
221.405297
 30
0.0
 10
52.707775
 20
221.915208
 30
0.0
 10
52.707894
 20
222.544080
 30
0.0
  0
SPLINE
  5
104
100
AcDbEntity
  8
Panel
 62
7
100
AcDbSpline
 70
8
 71
3
 72
8
 73
4
 74
0
 40
0
 40
0
 40
0
 40
0
 40
1
 40
1
 40
1
 40
1
 10
52.707894
 20
222.544080
 30
0.0
 10
52.708061
 20
223.172750
 30
0.0
 10
53.217657
 20
223.682345
 30
0.0
 10
53.846326
 20
223.682511
 30
0.0
  0
LWPOLYLINE
  5
105
100
AcDbEntity
  8
Panel
 62
7
100
AcDbPolyline
 90
5
 70
1
 10
46.346525
 20
225.543896
 30
0.0
 10
46.346525
 20
97.043730
 30
0.0
 10
71.346549
 20
97.043730
 30
0.0
 10
71.346549
 20
225.543896
 30
0.0
 10
46.346525
 20
225.543896
 30
0.0
  0
SPLINE
  5
106
100
AcDbEntity
  8
Panel
 62
7
100
AcDbSpline
 70
8
 71
3
 72
8
 73
4
 74
0
 40
0
 40
0
 40
0
 40
0
 40
1
 40
1
 40
1
 40
1
 10
58.846537
 20
210.097811
 30
0.0
 10
60.503248
 20
210.097710
 30
0.0
 10
61.846253
 20
208.754705
 30
0.0
 10
61.846354
 20
207.097994
 30
0.0
  0
SPLINE
  5
107
100
AcDbEntity
  8
Panel
 62
7
100
AcDbSpline
 70
8
 71
3
 72
8
 73
4
 74
0
 40
0
 40
0
 40
0
 40
0
 40
1
 40
1
 40
1
 40
1
 10
61.846354
 20
207.097994
 30
0.0
 10
61.846443
 20
206.302318
 30
0.0
 10
61.530436
 20
205.539199
 30
0.0
 10
60.967857
 20
204.976522
 30
0.0
  0
SPLINE
  5
108
100
AcDbEntity
  8
Panel
 62
7
100
AcDbSpline
 70
8
 71
3
 72
8
 73
4
 74
0
 40
0
 40
0
 40
0
 40
0
 40
1
 40
1
 40
1
 40
1
 10
60.967857
 20
204.976522
 30
0.0
 10
60.405278
 20
204.413846
 30
0.0
 10
59.642213
 20
204.097709
 30
0.0
 10
58.846537
 20
204.097660
 30
0.0
  0
SPLINE
  5
109
100
AcDbEntity
  8
Panel
 62
7
100
AcDbSpline
 70
8
 71
3
 72
8
 73
4
 74
0
 40
0
 40
0
 40
0
 40
0
 40
1
 40
1
 40
1
 40
1
 10
58.846537
 20
204.097660
 30
0.0
 10
58.050861
 20
204.097709
 30
0.0
 10
57.287796
 20
204.413846
 30
0.0
 10
56.725217
 20
204.976522
 30
0.0
  0
SPLINE
  5
10a
100
AcDbEntity
  8
Panel
 62
7
100
AcDbSpline
 70
8
 71
3
 72
8
 73
4
 74
0
 40
0
 40
0
 40
0
 40
0
 40
1
 40
1
 40
1
 40
1
 10
56.725217
 20
204.976522
 30
0.0
 10
56.162638
 20
205.539199
 30
0.0
 10
55.846631
 20
206.302318
 30
0.0
 10
55.846720
 20
207.097994
 30
0.0
  0
SPLINE
  5
10b
100
AcDbEntity
  8
Panel
 62
7
100
AcDbSpline
 70
8
 71
3
 72
8
 73
4
 74
0
 40
0
 40
0
 40
0
 40
0
 40
1
 40
1
 40
1
 40
1
 10
55.846720
 20
207.097994
 30
0.0
 10
55.846821
 20
208.754705
 30
0.0
 10
57.189826
 20
210.097710
 30
0.0
 10
58.846537
 20
210.097811
 30
0.0
  0
LWPOLYLINE
  5
10c
100
AcDbEntity
  8
Panel
 62
7
100
AcDbPolyline
 90
1
 70
1
 10
53.846326
 20
223.682511
 30
0.0
  0
SPLINE
  5
10d
100
AcDbEntity
  8
Panel
 62
7
100
AcDbSpline
 70
8
 71
3
 72
8
 73
4
 74
0
 40
0
 40
0
 40
0
 40
0
 40
1
 40
1
 40
1
 40
1
 10
58.846537
 20
193.647140
 30
0.0
 10
60.503249
 20
193.647039
 30
0.0
 10
61.846255
 20
192.304032
 30
0.0
 10
61.846354
 20
190.647320
 30
0.0
  0
SPLINE
  5
10e
100
AcDbEntity
  8
Panel
 62
7
100
AcDbSpline
 70
8
 71
3
 72
8
 73
4
 74
0
 40
0
 40
0
 40
0
 40
0
 40
1
 40
1
 40
1
 40
1
 10
61.846354
 20
190.647320
 30
0.0
 10
61.846444
 20
189.851643
 30
0.0
 10
61.530439
 20
189.088522
 30
0.0
 10
60.967859
 20
188.525845
 30
0.0
  0
SPLINE
  5
10f
100
AcDbEntity
  8
Panel
 62
7
100
AcDbSpline
 70
8
 71
3
 72
8
 73
4
 74
0
 40
0
 40
0
 40
0
 40
0
 40
1
 40
1
 40
1
 40
1
 10
60.967859
 20
188.525845
 30
0.0
 10
60.405280
 20
187.963167
 30
0.0
 10
59.642214
 20
187.647029
 30
0.0
 10
58.846537
 20
187.646980
 30
0.0
  0
SPLINE
  5
110
100
AcDbEntity
  8
Panel
 62
7
100
AcDbSpline
 70
8
 71
3
 72
8
 73
4
 74
0
 40
0
 40
0
 40
0
 40
0
 40
1
 40
1
 40
1
 40
1
 10
58.846537
 20
187.646980
 30
0.0
 10
58.050860
 20
187.647029
 30
0.0
 10
57.287794
 20
187.963167
 30
0.0
 10
56.725215
 20
188.525845
 30
0.0
  0
SPLINE
  5
111
100
AcDbEntity
  8
Panel
 62
7
100
AcDbSpline
 70
8
 71
3
 72
8
 73
4
 74
0
 40
0
 40
0
 40
0
 40
0
 40
1
 40
1
 40
1
 40
1
 10
56.725215
 20
188.525845
 30
0.0
 10
56.162635
 20
189.088522
 30
0.0
 10
55.846630
 20
189.851643
 30
0.0
 10
55.846720
 20
190.647320
 30
0.0
  0
SPLINE
  5
112
100
AcDbEntity
  8
Panel
 62
7
100
AcDbSpline
 70
8
 71
3
 72
8
 73
4
 74
0
 40
0
 40
0
 40
0
 40
0
 40
1
 40
1
 40
1
 40
1
 10
55.846720
 20
190.647320
 30
0.0
 10
55.846819
 20
192.304032
 30
0.0
 10
57.189825
 20
193.647039
 30
0.0
 10
58.846537
 20
193.647140
 30
0.0
  0
LWPOLYLINE
  5
113
100
AcDbEntity
  8
Panel
 62
7
100
AcDbPolyline
 90
1
 70
1
 10
58.846537
 20
210.097811
 30
0.0
  0
SPLINE
  5
114
100
AcDbEntity
  8
Panel
 62
7
100
AcDbSpline
 70
8
 71
3
 72
8
 73
4
 74
0
 40
0
 40
0
 40
0
 40
0
 40
1
 40
1
 40
1
 40
1
 10
58.846537
 20
177.196460
 30
0.0
 10
60.503249
 20
177.196359
 30
0.0
 10
61.846255
 20
175.853352
 30
0.0
 10
61.846354
 20
174.196640
 30
0.0
  0
SPLINE
  5
115
100
AcDbEntity
  8
Panel
 62
7
100
AcDbSpline
 70
8
 71
3
 72
8
 73
4
 74
0
 40
0
 40
0
 40
0
 40
0
 40
1
 40
1
 40
1
 40
1
 10
61.846354
 20
174.196640
 30
0.0
 10
61.846249
 20
172.539931
 30
0.0
 10
60.503246
 20
171.196931
 30
0.0
 10
58.846537
 20
171.196830
 30
0.0
  0
SPLINE
  5
116
100
AcDbEntity
  8
Panel
 62
7
100
AcDbSpline
 70
8
 71
3
 72
8
 73
4
 74
0
 40
0
 40
0
 40
0
 40
0
 40
1
 40
1
 40
1
 40
1
 10
58.846537
 20
171.196830
 30
0.0
 10
57.189828
 20
171.196931
 30
0.0
 10
55.846825
 20
172.539931
 30
0.0
 10
55.846720
 20
174.196640
 30
0.0
  0
SPLINE
  5
117
100
AcDbEntity
  8
Panel
 62
7
100
AcDbSpline
 70
8
 71
3
 72
8
 73
4
 74
0
 40
0
 40
0
 40
0
 40
0
 40
1
 40
1
 40
1
 40
1
 10
55.846720
 20
174.196640
 30
0.0
 10
55.846819
 20
175.853352
 30
0.0
 10
57.189825
 20
177.196359
 30
0.0
 10
58.846537
 20
177.196460
 30
0.0
  0
LWPOLYLINE
  5
118
100
AcDbEntity
  8
Panel
 62
7
100
AcDbPolyline
 90
1
 70
1
 10
58.846537
 20
193.647140
 30
0.0
  0
SPLINE
  5
119
100
AcDbEntity
  8
Panel
 62
7
100
AcDbSpline
 70
8
 71
3
 72
8
 73
4
 74
0
 40
0
 40
0
 40
0
 40
0
 40
1
 40
1
 40
1
 40
1
 10
53.508362
 20
159.288510
 30
0.0
 10
54.336719
 20
159.288317
 30
0.0
 10
55.008106
 20
158.616697
 30
0.0
 10
55.008012
 20
157.788340
 30
0.0
  0
SPLINE
  5
11a
100
AcDbEntity
  8
Panel
 62
7
100
AcDbSpline
 70
8
 71
3
 72
8
 73
4
 74
0
 40
0
 40
0
 40
0
 40
0
 40
1
 40
1
 40
1
 40
1
 10
55.008012
 20
157.788340
 30
0.0
 10
55.008100
 20
156.959987
 30
0.0
 10
54.336715
 20
156.288373
 30
0.0
 10
53.508362
 20
156.288180
 30
0.0
  0
SPLINE
  5
11b
100
AcDbEntity
  8
Panel
 62
7
100
AcDbSpline
 70
8
 71
3
 72
8
 73
4
 74
0
 40
0
 40
0
 40
0
 40
0
 40
1
 40
1
 40
1
 40
1
 10
53.508362
 20
156.288180
 30
0.0
 10
53.110481
 20
156.288136
 30
0.0
 10
52.728883
 20
156.446173
 30
0.0
 10
52.447537
 20
156.727517
 30
0.0
  0
SPLINE
  5
11c
100
AcDbEntity
  8
Panel
 62
7
100
AcDbSpline
 70
8
 71
3
 72
8
 73
4
 74
0
 40
0
 40
0
 40
0
 40
0
 40
1
 40
1
 40
1
 40
1
 10
52.447537
 20
156.727517
 30
0.0
 10
52.166192
 20
157.008861
 30
0.0
 10
52.008153
 20
157.390459
 30
0.0
 10
52.008195
 20
157.788340
 30
0.0
  0
SPLINE
  5
11d
100
AcDbEntity
  8
Panel
 62
7
100
AcDbSpline
 70
8
 71
3
 72
8
 73
4
 74
0
 40
0
 40
0
 40
0
 40
0
 40
1
 40
1
 40
1
 40
1
 10
52.008195
 20
157.788340
 30
0.0
 10
52.008150
 20
158.186223
 30
0.0
 10
52.166188
 20
158.567823
 30
0.0
 10
52.447534
 20
158.849169
 30
0.0
  0
SPLINE
  5
11e
100
AcDbEntity
  8
Panel
 62
7
100
AcDbSpline
 70
8
 71
3
 72
8
 73
4
 74
0
 40
0
 40
0
 40
0
 40
0
 40
1
 40
1
 40
1
 40
1
 10
52.447534
 20
158.849169
 30
0.0
 10
52.728879
 20
159.130515
 30
0.0
 10
53.110479
 20
159.288554
 30
0.0
 10
53.508362
 20
159.288510
 30
0.0
  0
LWPOLYLINE
  5
11f
100
AcDbEntity
  8
Panel
 62
7
100
AcDbPolyline
 90
1
 70
1
 10
58.846537
 20
177.196460
 30
0.0
  0
SPLINE
  5
120
100
AcDbEntity
  8
Panel
 62
7
100
AcDbSpline
 70
8
 71
3
 72
8
 73
4
 74
0
 40
0
 40
0
 40
0
 40
0
 40
1
 40
1
 40
1
 40
1
 10
64.519576
 20
159.288510
 30
0.0
 10
64.917459
 20
159.288554
 30
0.0
 10
65.299059
 20
159.130515
 30
0.0
 10
65.580404
 20
158.849169
 30
0.0
  0
SPLINE
  5
121
100
AcDbEntity
  8
Panel
 62
7
100
AcDbSpline
 70
8
 71
3
 72
8
 73
4
 74
0
 40
0
 40
0
 40
0
 40
0
 40
1
 40
1
 40
1
 40
1
 10
65.580404
 20
158.849169
 30
0.0
 10
65.861750
 20
158.567823
 30
0.0
 10
66.019788
 20
158.186223
 30
0.0
 10
66.019743
 20
157.788340
 30
0.0
  0
SPLINE
  5
122
100
AcDbEntity
  8
Panel
 62
7
100
AcDbSpline
 70
8
 71
3
 72
8
 73
4
 74
0
 40
0
 40
0
 40
0
 40
0
 40
1
 40
1
 40
1
 40
1
 10
66.019743
 20
157.788340
 30
0.0
 10
66.019785
 20
157.390459
 30
0.0
 10
65.861746
 20
157.008861
 30
0.0
 10
65.580401
 20
156.727517
 30
0.0
  0
SPLINE
  5
123
100
AcDbEntity
  8
Panel
 62
7
100
AcDbSpline
 70
8
 71
3
 72
8
 73
4
 74
0
 40
0
 40
0
 40
0
 40
0
 40
1
 40
1
 40
1
 40
1
 10
65.580401
 20
156.727517
 30
0.0
 10
65.299055
 20
156.446173
 30
0.0
 10
64.917457
 20
156.288136
 30
0.0
 10
64.519576
 20
156.288180
 30
0.0
  0
SPLINE
  5
124
100
AcDbEntity
  8
Panel
 62
7
100
AcDbSpline
 70
8
 71
3
 72
8
 73
4
 74
0
 40
0
 40
0
 40
0
 40
0
 40
1
 40
1
 40
1
 40
1
 10
64.519576
 20
156.288180
 30
0.0
 10
64.121695
 20
156.288136
 30
0.0
 10
63.740097
 20
156.446173
 30
0.0
 10
63.458751
 20
156.727517
 30
0.0
  0
SPLINE
  5
125
100
AcDbEntity
  8
Panel
 62
7
100
AcDbSpline
 70
8
 71
3
 72
8
 73
4
 74
0
 40
0
 40
0
 40
0
 40
0
 40
1
 40
1
 40
1
 40
1
 10
63.458751
 20
156.727517
 30
0.0
 10
63.177406
 20
157.008861
 30
0.0
 10
63.019367
 20
157.390459
 30
0.0
 10
63.019409
 20
157.788340
 30
0.0
  0
SPLINE
  5
126
100
AcDbEntity
  8
Panel
 62
7
100
AcDbSpline
 70
8
 71
3
 72
8
 73
4
 74
0
 40
0
 40
0
 40
0
 40
0
 40
1
 40
1
 40
1
 40
1
 10
63.019409
 20
157.788340
 30
0.0
 10
63.019364
 20
158.186223
 30
0.0
 10
63.177402
 20
158.567823
 30
0.0
 10
63.458748
 20
158.849169
 30
0.0
  0
SPLINE
  5
127
100
AcDbEntity
  8
Panel
 62
7
100
AcDbSpline
 70
8
 71
3
 72
8
 73
4
 74
0
 40
0
 40
0
 40
0
 40
0
 40
1
 40
1
 40
1
 40
1
 10
63.458748
 20
158.849169
 30
0.0
 10
63.740093
 20
159.130515
 30
0.0
 10
64.121693
 20
159.288554
 30
0.0
 10
64.519576
 20
159.288510
 30
0.0
  0
LWPOLYLINE
  5
128
100
AcDbEntity
  8
Panel
 62
7
100
AcDbPolyline
 90
1
 70
1
 10
53.508362
 20
159.288510
 30
0.0
  0
SPLINE
  5
129
100
AcDbEntity
  8
Panel
 62
7
100
AcDbSpline
 70
8
 71
3
 72
8
 73
4
 74
0
 40
0
 40
0
 40
0
 40
0
 40
1
 40
1
 40
1
 40
1
 10
53.508362
 20
149.456030
 30
0.0
 10
54.336516
 20
149.455837
 30
0.0
 10
55.007819
 20
148.784534
 30
0.0
 10
55.008012
 20
147.956380
 30
0.0
  0
SPLINE
  5
12a
100
AcDbEntity
  8
Panel
 62
7
100
AcDbSpline
 70
8
 71
3
 72
8
 73
4
 74
0
 40
0
 40
0
 40
0
 40
0
 40
1
 40
1
 40
1
 40
1
 10
55.008012
 20
147.956380
 30
0.0
 10
55.008100
 20
147.128027
 30
0.0
 10
54.336715
 20
146.456413
 30
0.0
 10
53.508362
 20
146.456220
 30
0.0
  0
SPLINE
  5
12b
100
AcDbEntity
  8
Panel
 62
7
100
AcDbSpline
 70
8
 71
3
 72
8
 73
4
 74
0
 40
0
 40
0
 40
0
 40
0
 40
1
 40
1
 40
1
 40
1
 10
53.508362
 20
146.456220
 30
0.0
 10
53.110481
 20
146.456176
 30
0.0
 10
52.728883
 20
146.614213
 30
0.0
 10
52.447537
 20
146.895557
 30
0.0
  0
SPLINE
  5
12c
100
AcDbEntity
  8
Panel
 62
7
100
AcDbSpline
 70
8
 71
3
 72
8
 73
4
 74
0
 40
0
 40
0
 40
0
 40
0
 40
1
 40
1
 40
1
 40
1
 10
52.447537
 20
146.895557
 30
0.0
 10
52.166192
 20
147.176901
 30
0.0
 10
52.008153
 20
147.558499
 30
0.0
 10
52.008195
 20
147.956380
 30
0.0
  0
SPLINE
  5
12d
100
AcDbEntity
  8
Panel
 62
7
100
AcDbSpline
 70
8
 71
3
 72
8
 73
4
 74
0
 40
0
 40
0
 40
0
 40
0
 40
1
 40
1
 40
1
 40
1
 10
52.008195
 20
147.956380
 30
0.0
 10
52.008388
 20
148.784736
 30
0.0
 10
52.680006
 20
149.456122
 30
0.0
 10
53.508362
 20
149.456030
 30
0.0
  0
LWPOLYLINE
  5
12e
100
AcDbEntity
  8
Panel
 62
7
100
AcDbPolyline
 90
1
 70
1
 10
64.519576
 20
159.288510
 30
0.0
  0
SPLINE
  5
12f
100
AcDbEntity
  8
Panel
 62
7
100
AcDbSpline
 70
8
 71
3
 72
8
 73
4
 74
0
 40
0
 40
0
 40
0
 40
0
 40
1
 40
1
 40
1
 40
1
 10
64.519576
 20
149.456030
 30
0.0
 10
65.347932
 20
149.456122
 30
0.0
 10
66.019550
 20
148.784736
 30
0.0
 10
66.019743
 20
147.956380
 30
0.0
  0
SPLINE
  5
130
100
AcDbEntity
  8
Panel
 62
7
100
AcDbSpline
 70
8
 71
3
 72
8
 73
4
 74
0
 40
0
 40
0
 40
0
 40
0
 40
1
 40
1
 40
1
 40
1
 10
66.019743
 20
147.956380
 30
0.0
 10
66.019785
 20
147.558499
 30
0.0
 10
65.861746
 20
147.176901
 30
0.0
 10
65.580401
 20
146.895557
 30
0.0
  0
SPLINE
  5
131
100
AcDbEntity
  8
Panel
 62
7
100
AcDbSpline
 70
8
 71
3
 72
8
 73
4
 74
0
 40
0
 40
0
 40
0
 40
0
 40
1
 40
1
 40
1
 40
1
 10
65.580401
 20
146.895557
 30
0.0
 10
65.299055
 20
146.614213
 30
0.0
 10
64.917457
 20
146.456176
 30
0.0
 10
64.519576
 20
146.456220
 30
0.0
  0
SPLINE
  5
132
100
AcDbEntity
  8
Panel
 62
7
100
AcDbSpline
 70
8
 71
3
 72
8
 73
4
 74
0
 40
0
 40
0
 40
0
 40
0
 40
1
 40
1
 40
1
 40
1
 10
64.519576
 20
146.456220
 30
0.0
 10
64.121695
 20
146.456176
 30
0.0
 10
63.740097
 20
146.614213
 30
0.0
 10
63.458751
 20
146.895557
 30
0.0
  0
SPLINE
  5
133
100
AcDbEntity
  8
Panel
 62
7
100
AcDbSpline
 70
8
 71
3
 72
8
 73
4
 74
0
 40
0
 40
0
 40
0
 40
0
 40
1
 40
1
 40
1
 40
1
 10
63.458751
 20
146.895557
 30
0.0
 10
63.177406
 20
147.176901
 30
0.0
 10
63.019367
 20
147.558499
 30
0.0
 10
63.019409
 20
147.956380
 30
0.0
  0
SPLINE
  5
134
100
AcDbEntity
  8
Panel
 62
7
100
AcDbSpline
 70
8
 71
3
 72
8
 73
4
 74
0
 40
0
 40
0
 40
0
 40
0
 40
1
 40
1
 40
1
 40
1
 10
63.019409
 20
147.956380
 30
0.0
 10
63.019602
 20
148.784736
 30
0.0
 10
63.691220
 20
149.456122
 30
0.0
 10
64.519576
 20
149.456030
 30
0.0
  0
LWPOLYLINE
  5
135
100
AcDbEntity
  8
Panel
 62
7
100
AcDbPolyline
 90
1
 70
1
 10
53.508362
 20
149.456030
 30
0.0
  0
SPLINE
  5
136
100
AcDbEntity
  8
Panel
 62
7
100
AcDbSpline
 70
8
 71
3
 72
8
 73
4
 74
0
 40
0
 40
0
 40
0
 40
0
 40
1
 40
1
 40
1
 40
1
 10
52.496537
 20
139.766190
 30
0.0
 10
55.257724
 20
139.766022
 30
0.0
 10
57.496066
 20
137.527677
 30
0.0
 10
57.496232
 20
134.766490
 30
0.0
  0
SPLINE
  5
137
100
AcDbEntity
  8
Panel
 62
7
100
AcDbSpline
 70
8
 71
3
 72
8
 73
4
 74
0
 40
0
 40
0
 40
0
 40
0
 40
1
 40
1
 40
1
 40
1
 10
57.496232
 20
134.766490
 30
0.0
 10
57.496348
 20
132.005103
 30
0.0
 10
55.257924
 20
129.766448
 30
0.0
 10
52.496537
 20
129.766280
 30
0.0
  0
SPLINE
  5
138
100
AcDbEntity
  8
Panel
 62
7
100
AcDbSpline
 70
8
 71
3
 72
8
 73
4
 74
0
 40
0
 40
0
 40
0
 40
0
 40
1
 40
1
 40
1
 40
1
 10
52.496537
 20
129.766280
 30
0.0
 10
51.170382
 20
129.766224
 30
0.0
 10
49.898526
 20
130.293012
 30
0.0
 10
48.960792
 20
131.230746
 30
0.0
  0
SPLINE
  5
139
100
AcDbEntity
  8
Panel
 62
7
100
AcDbSpline
 70
8
 71
3
 72
8
 73
4
 74
0
 40
0
 40
0
 40
0
 40
0
 40
1
 40
1
 40
1
 40
1
 10
48.960792
 20
131.230746
 30
0.0
 10
48.023059
 20
132.168479
 30
0.0
 10
47.496270
 20
133.440335
 30
0.0
 10
47.496326
 20
134.766490
 30
0.0
  0
SPLINE
  5
13a
100
AcDbEntity
  8
Panel
 62
7
100
AcDbSpline
 70
8
 71
3
 72
8
 73
4
 74
0
 40
0
 40
0
 40
0
 40
0
 40
1
 40
1
 40
1
 40
1
 10
47.496326
 20
134.766490
 30
0.0
 10
47.496492
 20
137.527879
 30
0.0
 10
49.735148
 20
139.766307
 30
0.0
 10
52.496537
 20
139.766190
 30
0.0
  0
LWPOLYLINE
  5
13b
100
AcDbEntity
  8
Panel
 62
7
100
AcDbPolyline
 90
1
 70
1
 10
64.519576
 20
149.456030
 30
0.0
  0
SPLINE
  5
13c
100
AcDbEntity
  8
Panel
 62
7
100
AcDbSpline
 70
8
 71
3
 72
8
 73
4
 74
0
 40
0
 40
0
 40
0
 40
0
 40
1
 40
1
 40
1
 40
1
 10
65.196537
 20
139.766190
 30
0.0
 10
67.957724
 20
139.766022
 30
0.0
 10
70.196066
 20
137.527677
 30
0.0
 10
70.196232
 20
134.766490
 30
0.0
  0
SPLINE
  5
13d
100
AcDbEntity
  8
Panel
 62
7
100
AcDbSpline
 70
8
 71
3
 72
8
 73
4
 74
0
 40
0
 40
0
 40
0
 40
0
 40
1
 40
1
 40
1
 40
1
 10
70.196232
 20
134.766490
 30
0.0
 10
70.196348
 20
132.005103
 30
0.0
 10
67.957924
 20
129.766448
 30
0.0
 10
65.196537
 20
129.766280
 30
0.0
  0
SPLINE
  5
13e
100
AcDbEntity
  8
Panel
 62
7
100
AcDbSpline
 70
8
 71
3
 72
8
 73
4
 74
0
 40
0
 40
0
 40
0
 40
0
 40
1
 40
1
 40
1
 40
1
 10
65.196537
 20
129.766280
 30
0.0
 10
63.870382
 20
129.766224
 30
0.0
 10
62.598526
 20
130.293012
 30
0.0
 10
61.660792
 20
131.230746
 30
0.0
  0
SPLINE
  5
13f
100
AcDbEntity
  8
Panel
 62
7
100
AcDbSpline
 70
8
 71
3
 72
8
 73
4
 74
0
 40
0
 40
0
 40
0
 40
0
 40
1
 40
1
 40
1
 40
1
 10
61.660792
 20
131.230746
 30
0.0
 10
60.723059
 20
132.168479
 30
0.0
 10
60.196270
 20
133.440335
 30
0.0
 10
60.196326
 20
134.766490
 30
0.0
  0
SPLINE
  5
140
100
AcDbEntity
  8
Panel
 62
7
100
AcDbSpline
 70
8
 71
3
 72
8
 73
4
 74
0
 40
0
 40
0
 40
0
 40
0
 40
1
 40
1
 40
1
 40
1
 10
60.196326
 20
134.766490
 30
0.0
 10
60.196492
 20
137.527879
 30
0.0
 10
62.435148
 20
139.766307
 30
0.0
 10
65.196537
 20
139.766190
 30
0.0
  0
LWPOLYLINE
  5
141
100
AcDbEntity
  8
Panel
 62
7
100
AcDbPolyline
 90
1
 70
1
 10
52.496537
 20
139.766190
 30
0.0
  0
SPLINE
  5
142
100
AcDbEntity
  8
Panel
 62
7
100
AcDbSpline
 70
8
 71
3
 72
8
 73
4
 74
0
 40
0
 40
0
 40
0
 40
0
 40
1
 40
1
 40
1
 40
1
 10
52.496537
 20
121.618970
 30
0.0
 10
55.257721
 20
121.618802
 30
0.0
 10
57.496061
 20
119.380464
 30
0.0
 10
57.496232
 20
116.619280
 30
0.0
  0
SPLINE
  5
143
100
AcDbEntity
  8
Panel
 62
7
100
AcDbSpline
 70
8
 71
3
 72
8
 73
4
 74
0
 40
0
 40
0
 40
0
 40
0
 40
1
 40
1
 40
1
 40
1
 10
57.496232
 20
116.619280
 30
0.0
 10
57.496348
 20
113.857893
 30
0.0
 10
55.257924
 20
111.619238
 30
0.0
 10
52.496537
 20
111.619070
 30
0.0
  0
SPLINE
  5
144
100
AcDbEntity
  8
Panel
 62
7
100
AcDbSpline
 70
8
 71
3
 72
8
 73
4
 74
0
 40
0
 40
0
 40
0
 40
0
 40
1
 40
1
 40
1
 40
1
 10
52.496537
 20
111.619070
 30
0.0
 10
51.170382
 20
111.619014
 30
0.0
 10
49.898526
 20
112.145802
 30
0.0
 10
48.960792
 20
113.083536
 30
0.0
  0
SPLINE
  5
145
100
AcDbEntity
  8
Panel
 62
7
100
AcDbSpline
 70
8
 71
3
 72
8
 73
4
 74
0
 40
0
 40
0
 40
0
 40
0
 40
1
 40
1
 40
1
 40
1
 10
48.960792
 20
113.083536
 30
0.0
 10
48.023059
 20
114.021269
 30
0.0
 10
47.496270
 20
115.293125
 30
0.0
 10
47.496326
 20
116.619280
 30
0.0
  0
SPLINE
  5
146
100
AcDbEntity
  8
Panel
 62
7
100
AcDbSpline
 70
8
 71
3
 72
8
 73
4
 74
0
 40
0
 40
0
 40
0
 40
0
 40
1
 40
1
 40
1
 40
1
 10
47.496326
 20
116.619280
 30
0.0
 10
47.496497
 20
119.380665
 30
0.0
 10
49.735152
 20
121.619087
 30
0.0
 10
52.496537
 20
121.618970
 30
0.0
  0
LWPOLYLINE
  5
147
100
AcDbEntity
  8
Panel
 62
7
100
AcDbPolyline
 90
1
 70
1
 10
65.196537
 20
139.766190
 30
0.0
  0
SPLINE
  5
148
100
AcDbEntity
  8
Panel
 62
7
100
AcDbSpline
 70
8
 71
3
 72
8
 73
4
 74
0
 40
0
 40
0
 40
0
 40
0
 40
1
 40
1
 40
1
 40
1
 10
65.196537
 20
121.618970
 30
0.0
 10
67.957721
 20
121.618802
 30
0.0
 10
70.196061
 20
119.380464
 30
0.0
 10
70.196232
 20
116.619280
 30
0.0
  0
SPLINE
  5
149
100
AcDbEntity
  8
Panel
 62
7
100
AcDbSpline
 70
8
 71
3
 72
8
 73
4
 74
0
 40
0
 40
0
 40
0
 40
0
 40
1
 40
1
 40
1
 40
1
 10
70.196232
 20
116.619280
 30
0.0
 10
70.196348
 20
113.857893
 30
0.0
 10
67.957924
 20
111.619238
 30
0.0
 10
65.196537
 20
111.619070
 30
0.0
  0
SPLINE
  5
14a
100
AcDbEntity
  8
Panel
 62
7
100
AcDbSpline
 70
8
 71
3
 72
8
 73
4
 74
0
 40
0
 40
0
 40
0
 40
0
 40
1
 40
1
 40
1
 40
1
 10
65.196537
 20
111.619070
 30
0.0
 10
63.870382
 20
111.619014
 30
0.0
 10
62.598526
 20
112.145802
 30
0.0
 10
61.660792
 20
113.083536
 30
0.0
  0
SPLINE
  5
14b
100
AcDbEntity
  8
Panel
 62
7
100
AcDbSpline
 70
8
 71
3
 72
8
 73
4
 74
0
 40
0
 40
0
 40
0
 40
0
 40
1
 40
1
 40
1
 40
1
 10
61.660792
 20
113.083536
 30
0.0
 10
60.723059
 20
114.021269
 30
0.0
 10
60.196270
 20
115.293125
 30
0.0
 10
60.196326
 20
116.619280
 30
0.0
  0
SPLINE
  5
14c
100
AcDbEntity
  8
Panel
 62
7
100
AcDbSpline
 70
8
 71
3
 72
8
 73
4
 74
0
 40
0
 40
0
 40
0
 40
0
 40
1
 40
1
 40
1
 40
1
 10
60.196326
 20
116.619280
 30
0.0
 10
60.196497
 20
119.380665
 30
0.0
 10
62.435152
 20
121.619087
 30
0.0
 10
65.196537
 20
121.618970
 30
0.0
  0
LWPOLYLINE
  5
14d
100
AcDbEntity
  8
Panel
 62
7
100
AcDbPolyline
 90
1
 70
1
 10
52.496537
 20
121.618970
 30
0.0
  0
SPLINE
  5
14e
100
AcDbEntity
  8
Panel
 62
7
100
AcDbSpline
 70
8
 71
3
 72
8
 73
4
 74
0
 40
0
 40
0
 40
0
 40
0
 40
1
 40
1
 40
1
 40
1
 10
53.846326
 20
101.183010
 30
0.0
 10
54.148411
 20
101.183067
 30
0.0
 10
54.438141
 20
101.063090
 30
0.0
 10
54.651747
 20
100.849483
 30
0.0
  0
SPLINE
  5
14f
100
AcDbEntity
  8
Panel
 62
7
100
AcDbSpline
 70
8
 71
3
 72
8
 73
4
 74
0
 40
0
 40
0
 40
0
 40
0
 40
1
 40
1
 40
1
 40
1
 10
54.651747
 20
100.849483
 30
0.0
 10
54.865354
 20
100.635876
 30
0.0
 10
54.985331
 20
100.346146
 30
0.0
 10
54.985274
 20
100.044060
 30
0.0
  0
SPLINE
  5
150
100
AcDbEntity
  8
Panel
 62
7
100
AcDbSpline
 70
8
 71
3
 72
8
 73
4
 74
0
 40
0
 40
0
 40
0
 40
0
 40
1
 40
1
 40
1
 40
1
 10
54.985274
 20
100.044060
 30
0.0
 10
54.985331
 20
99.741974
 30
0.0
 10
54.865354
 20
99.452244
 30
0.0
 10
54.651747
 20
99.238637
 30
0.0
  0
SPLINE
  5
151
100
AcDbEntity
  8
Panel
 62
7
100
AcDbSpline
 70
8
 71
3
 72
8
 73
4
 74
0
 40
0
 40
0
 40
0
 40
0
 40
1
 40
1
 40
1
 40
1
 10
54.651747
 20
99.238637
 30
0.0
 10
54.438141
 20
99.025030
 30
0.0
 10
54.148411
 20
98.905053
 30
0.0
 10
53.846326
 20
98.905110
 30
0.0
  0
SPLINE
  5
152
100
AcDbEntity
  8
Panel
 62
7
100
AcDbSpline
 70
8
 71
3
 72
8
 73
4
 74
0
 40
0
 40
0
 40
0
 40
0
 40
1
 40
1
 40
1
 40
1
 10
53.846326
 20
98.905110
 30
0.0
 10
53.217454
 20
98.905276
 30
0.0
 10
52.707775
 20
99.415187
 30
0.0
 10
52.707894
 20
100.044060
 30
0.0
  0
SPLINE
  5
153
100
AcDbEntity
  8
Panel
 62
7
100
AcDbSpline
 70
8
 71
3
 72
8
 73
4
 74
0
 40
0
 40
0
 40
0
 40
0
 40
1
 40
1
 40
1
 40
1
 10
52.707894
 20
100.044060
 30
0.0
 10
52.707775
 20
100.672933
 30
0.0
 10
53.217454
 20
101.182844
 30
0.0
 10
53.846326
 20
101.183010
 30
0.0
  0
LWPOLYLINE
  5
154
100
AcDbEntity
  8
Panel
 62
7
100
AcDbPolyline
 90
1
 70
1
 10
65.196537
 20
121.618970
 30
0.0
  0
LWPOLYLINE
  5
155
100
AcDbEntity
  8
Panel
 62
7
100
AcDbPolyline
 90
1
 70
1
 10
53.846326
 20
101.183010
 30
0.0
  0
ENDSEC
  0
SECTION
  2
OBJECTS
  0
DICTIONARY
  5
C
330
0
100
AcDbDictionary
  3
ACAD_GROUP
350
D
  3
ACAD_MLINESTYLE
350
17
  0
DICTIONARY
  5
D
330
C
100
AcDbDictionary
  0
DICTIONARY
  5
1A
330
C
100
AcDbDictionary
  0
DICTIONARY
  5
17
330
C
100
AcDbDictionary
  3
STANDARD
350
18
  0
DICTIONARY
  5
19
330
C
100
AcDbDictionary
  0
ENDSEC
  0
EOF
