999
"DXF R12 Output" (www.mydxf.blogspot.com)
 0 
SECTION
 2 
HEADER
 9 
$ACADVER
 1 
AC1009
 9 
$EXTMIN
 10 
 0 
 20 
 0 
 9 
$EXTMAX
 10 
 8.5 
 20 
 11 
 0 
ENDSEC
 0 
SECTION
 2 
ENTITIES
0
LINE
8
Panel
10
50.118900
20
266.881000
11
50.118900
21
138.619000
0
LINE
8
Panel
10
50.118900
20
138.619000
11
151.181000
21
138.619000
0
LINE
8
Panel
10
151.181000
20
138.619000
11
151.181000
21
266.881000
0
LINE
8
Panel
10
151.181000
20
266.881000
11
50.118900
21
266.881000
0
LINE
8
Panel
10
50.118900
20
266.881000
11
50.118900
21
266.881000
0
LINE
8
Panel
10
57.499800
20
265.168000
11
57.954669
21
265.076363
0
LINE
8
Panel
10
57.954669
20
265.076363
11
58.326195
21
264.826102
0
LINE
8
Panel
10
58.326195
20
264.826102
11
58.576774
21
264.454790
0
LINE
8
Panel
10
58.576774
20
264.454790
11
58.668800
21
264.000000
0
LINE
8
Panel
10
58.668800
20
264.000000
11
58.576774
21
263.545210
0
LINE
8
Panel
10
58.576774
20
263.545210
11
58.326195
21
263.173898
0
LINE
8
Panel
10
58.326195
20
263.173898
11
57.954669
21
262.923637
0
LINE
8
Panel
10
57.954669
20
262.923637
11
57.499800
21
262.832000
0
LINE
8
Panel
10
57.499800
20
262.832000
11
57.045124
21
262.923810
0
LINE
8
Panel
10
57.045124
20
262.923810
11
56.673793
21
263.174110
0
LINE
8
Panel
10
56.673793
20
263.174110
11
56.423366
21
263.545355
0
LINE
8
Panel
10
56.423366
20
263.545355
11
56.331400
21
264.000000
0
LINE
8
Panel
10
56.331400
20
264.000000
11
56.423366
21
264.454645
0
LINE
8
Panel
10
56.423366
20
264.454645
11
56.673793
21
264.825890
0
LINE
8
Panel
10
56.673793
20
264.825890
11
57.045124
21
265.076190
0
LINE
8
Panel
10
57.045124
20
265.076190
11
57.499800
21
265.168000
0
LINE
8
Panel
10
57.499800
20
265.168000
11
57.499800
21
265.168000
0
LINE
8
Panel
10
143.690000
20
265.168000
11
144.144548
21
265.076075
0
LINE
8
Panel
10
144.144548
20
265.076075
11
144.515749
21
264.825749
0
LINE
8
Panel
10
144.515749
20
264.825749
11
144.766075
21
264.454548
0
LINE
8
Panel
10
144.766075
20
264.454548
11
144.858000
21
264.000000
0
LINE
8
Panel
10
144.858000
20
264.000000
11
144.766075
21
263.545452
0
LINE
8
Panel
10
144.766075
20
263.545452
11
144.515749
21
263.174251
0
LINE
8
Panel
10
144.515749
20
263.174251
11
144.144548
21
262.923925
0
LINE
8
Panel
10
144.144548
20
262.923925
11
143.690000
21
262.832000
0
LINE
8
Panel
10
143.690000
20
262.832000
11
143.235452
21
262.923925
0
LINE
8
Panel
10
143.235452
20
262.923925
11
142.864251
21
263.174251
0
LINE
8
Panel
10
142.864251
20
263.174251
11
142.613925
21
263.545452
0
LINE
8
Panel
10
142.613925
20
263.545452
11
142.522000
21
264.000000
0
LINE
8
Panel
10
142.522000
20
264.000000
11
142.613925
21
264.454548
0
LINE
8
Panel
10
142.613925
20
264.454548
11
142.864251
21
264.825749
0
LINE
8
Panel
10
142.864251
20
264.825749
11
143.235452
21
265.076075
0
LINE
8
Panel
10
143.235452
20
265.076075
11
143.690000
21
265.168000
0
LINE
8
Panel
10
143.690000
20
265.168000
11
143.690000
21
265.168000
0
LINE
8
Panel
10
63.942900
20
249.044000
11
76.943100
21
249.044000
0
LINE
8
Panel
10
76.943100
20
249.044000
11
76.943100
21
241.044000
0
LINE
8
Panel
10
76.943100
20
241.044000
11
76.943100
21
233.044000
0
LINE
8
Panel
10
76.943100
20
233.044000
11
63.942900
21
233.044000
0
LINE
8
Panel
10
63.942900
20
233.044000
11
63.942900
21
241.044000
0
LINE
8
Panel
10
63.942900
20
241.044000
11
63.942900
21
249.044000
0
LINE
8
Panel
10
63.942900
20
249.044000
11
63.942900
21
249.044000
0
LINE
8
Panel
10
109.231000
20
248.344000
11
125.530000
21
248.344000
0
LINE
8
Panel
10
125.530000
20
248.344000
11
125.530000
21
233.743000
0
LINE
8
Panel
10
125.530000
20
233.743000
11
109.231000
21
233.743000
0
LINE
8
Panel
10
109.231000
20
233.743000
11
109.231000
21
248.344000
0
LINE
8
Panel
10
109.231000
20
248.344000
11
109.231000
21
248.344000
0
LINE
8
Panel
10
139.724000
20
247.748000
11
140.872050
21
247.519639
0
LINE
8
Panel
10
140.872050
20
247.519639
11
141.845320
21
246.869320
0
LINE
8
Panel
10
141.845320
20
246.869320
11
142.495639
21
245.896050
0
LINE
8
Panel
10
142.495639
20
245.896050
11
142.724000
21
244.748000
0
LINE
8
Panel
10
142.724000
20
244.748000
11
142.495639
21
243.599950
0
LINE
8
Panel
10
142.495639
20
243.599950
11
141.845320
21
242.626680
0
LINE
8
Panel
10
141.845320
20
242.626680
11
140.872050
21
241.976361
0
LINE
8
Panel
10
140.872050
20
241.976361
11
139.724000
21
241.748000
0
LINE
8
Panel
10
139.724000
20
241.748000
11
138.575950
21
241.976361
0
LINE
8
Panel
10
138.575950
20
241.976361
11
137.602680
21
242.626680
0
LINE
8
Panel
10
137.602680
20
242.626680
11
136.952361
21
243.599950
0
LINE
8
Panel
10
136.952361
20
243.599950
11
136.724000
21
244.748000
0
LINE
8
Panel
10
136.724000
20
244.748000
11
136.952361
21
245.896050
0
LINE
8
Panel
10
136.952361
20
245.896050
11
137.602680
21
246.869320
0
LINE
8
Panel
10
137.602680
20
246.869320
11
138.575950
21
247.519639
0
LINE
8
Panel
10
138.575950
20
247.519639
11
139.724000
21
247.748000
0
LINE
8
Panel
10
139.724000
20
247.748000
11
139.724000
21
247.748000
0
LINE
8
Panel
10
91.478100
20
246.544000
11
104.478000
21
246.544000
0
LINE
8
Panel
10
104.478000
20
246.544000
11
104.478000
21
235.544000
0
LINE
8
Panel
10
104.478000
20
235.544000
11
91.478100
21
235.544000
0
LINE
8
Panel
10
91.478100
20
235.544000
11
91.478100
21
246.544000
0
LINE
8
Panel
10
91.478100
20
246.544000
11
91.478100
21
246.544000
0
LINE
8
Panel
10
62.473700
20
225.514000
11
63.581992
21
225.402269
0
LINE
8
Panel
10
63.581992
20
225.402269
11
64.614274
21
225.081855
0
LINE
8
Panel
10
64.614274
20
225.081855
11
65.548436
21
224.574865
0
LINE
8
Panel
10
65.548436
20
224.574865
11
66.362369
21
223.903406
0
LINE
8
Panel
10
66.362369
20
223.903406
11
67.033962
21
223.089583
0
LINE
8
Panel
10
67.033962
20
223.089583
11
67.541105
21
222.155503
0
LINE
8
Panel
10
67.541105
20
222.155503
11
67.861688
21
221.123273
0
LINE
8
Panel
10
67.861688
20
221.123273
11
67.973600
21
220.015000
0
LINE
8
Panel
10
67.973600
20
220.015000
11
67.861862
21
218.906572
0
LINE
8
Panel
10
67.861862
20
218.906572
11
67.541393
21
217.874176
0
LINE
8
Panel
10
67.541393
20
217.874176
11
67.034308
21
216.939929
0
LINE
8
Panel
10
67.034308
20
216.939929
11
66.362723
21
216.125948
0
LINE
8
Panel
10
66.362723
20
216.125948
11
65.548753
21
215.454348
0
LINE
8
Panel
10
65.548753
20
215.454348
11
64.614516
21
214.947246
0
LINE
8
Panel
10
64.614516
20
214.947246
11
63.582126
21
214.626758
0
LINE
8
Panel
10
63.582126
20
214.626758
11
62.473700
21
214.515000
0
LINE
8
Panel
10
62.473700
20
214.515000
11
61.365274
21
214.626758
0
LINE
8
Panel
10
61.365274
20
214.626758
11
60.332884
21
214.947246
0
LINE
8
Panel
10
60.332884
20
214.947246
11
59.398647
21
215.454348
0
LINE
8
Panel
10
59.398647
20
215.454348
11
58.584677
21
216.125948
0
LINE
8
Panel
10
58.584677
20
216.125948
11
57.913092
21
216.939929
0
LINE
8
Panel
10
57.913092
20
216.939929
11
57.406007
21
217.874176
0
LINE
8
Panel
10
57.406007
20
217.874176
11
57.085538
21
218.906572
0
LINE
8
Panel
10
57.085538
20
218.906572
11
56.973800
21
220.015000
0
LINE
8
Panel
10
56.973800
20
220.015000
11
57.085712
21
221.123273
0
LINE
8
Panel
10
57.085712
20
221.123273
11
57.406295
21
222.155503
0
LINE
8
Panel
10
57.406295
20
222.155503
11
57.913438
21
223.089583
0
LINE
8
Panel
10
57.913438
20
223.089583
11
58.585031
21
223.903406
0
LINE
8
Panel
10
58.585031
20
223.903406
11
59.398964
21
224.574865
0
LINE
8
Panel
10
59.398964
20
224.574865
11
60.333126
21
225.081855
0
LINE
8
Panel
10
60.333126
20
225.081855
11
61.365408
21
225.402269
0
LINE
8
Panel
10
61.365408
20
225.402269
11
62.473700
21
225.514000
0
LINE
8
Panel
10
62.473700
20
225.514000
11
62.473700
21
225.514000
0
LINE
8
Panel
10
79.723800
20
225.514000
11
80.832092
21
225.402269
0
LINE
8
Panel
10
80.832092
20
225.402269
11
81.864374
21
225.081855
0
LINE
8
Panel
10
81.864374
20
225.081855
11
82.798536
21
224.574865
0
LINE
8
Panel
10
82.798536
20
224.574865
11
83.612469
21
223.903406
0
LINE
8
Panel
10
83.612469
20
223.903406
11
84.284062
21
223.089583
0
LINE
8
Panel
10
84.284062
20
223.089583
11
84.791205
21
222.155503
0
LINE
8
Panel
10
84.791205
20
222.155503
11
85.111788
21
221.123273
0
LINE
8
Panel
10
85.111788
20
221.123273
11
85.223700
21
220.015000
0
LINE
8
Panel
10
85.223700
20
220.015000
11
85.111962
21
218.906572
0
LINE
8
Panel
10
85.111962
20
218.906572
11
84.791493
21
217.874176
0
LINE
8
Panel
10
84.791493
20
217.874176
11
84.284408
21
216.939929
0
LINE
8
Panel
10
84.284408
20
216.939929
11
83.612823
21
216.125948
0
LINE
8
Panel
10
83.612823
20
216.125948
11
82.798853
21
215.454348
0
LINE
8
Panel
10
82.798853
20
215.454348
11
81.864616
21
214.947246
0
LINE
8
Panel
10
81.864616
20
214.947246
11
80.832226
21
214.626758
0
LINE
8
Panel
10
80.832226
20
214.626758
11
79.723800
21
214.515000
0
LINE
8
Panel
10
79.723800
20
214.515000
11
78.615374
21
214.626758
0
LINE
8
Panel
10
78.615374
20
214.626758
11
77.582984
21
214.947246
0
LINE
8
Panel
10
77.582984
20
214.947246
11
76.648747
21
215.454348
0
LINE
8
Panel
10
76.648747
20
215.454348
11
75.834777
21
216.125948
0
LINE
8
Panel
10
75.834777
20
216.125948
11
75.163192
21
216.939929
0
LINE
8
Panel
10
75.163192
20
216.939929
11
74.656107
21
217.874176
0
LINE
8
Panel
10
74.656107
20
217.874176
11
74.335638
21
218.906572
0
LINE
8
Panel
10
74.335638
20
218.906572
11
74.223900
21
220.015000
0
LINE
8
Panel
10
74.223900
20
220.015000
11
74.335812
21
221.123273
0
LINE
8
Panel
10
74.335812
20
221.123273
11
74.656395
21
222.155503
0
LINE
8
Panel
10
74.656395
20
222.155503
11
75.163538
21
223.089583
0
LINE
8
Panel
10
75.163538
20
223.089583
11
75.835131
21
223.903406
0
LINE
8
Panel
10
75.835131
20
223.903406
11
76.649064
21
224.574865
0
LINE
8
Panel
10
76.649064
20
224.574865
11
77.583226
21
225.081855
0
LINE
8
Panel
10
77.583226
20
225.081855
11
78.615508
21
225.402269
0
LINE
8
Panel
10
78.615508
20
225.402269
11
79.723800
21
225.514000
0
LINE
8
Panel
10
79.723800
20
225.514000
11
79.723800
21
225.514000
0
LINE
8
Panel
10
99.724100
20
225.514000
11
100.832392
21
225.402269
0
LINE
8
Panel
10
100.832392
20
225.402269
11
101.864674
21
225.081855
0
LINE
8
Panel
10
101.864674
20
225.081855
11
102.798836
21
224.574865
0
LINE
8
Panel
10
102.798836
20
224.574865
11
103.612769
21
223.903406
0
LINE
8
Panel
10
103.612769
20
223.903406
11
104.284362
21
223.089583
0
LINE
8
Panel
10
104.284362
20
223.089583
11
104.791505
21
222.155503
0
LINE
8
Panel
10
104.791505
20
222.155503
11
105.112088
21
221.123273
0
LINE
8
Panel
10
105.112088
20
221.123273
11
105.224000
21
220.015000
0
LINE
8
Panel
10
105.224000
20
220.015000
11
105.112262
21
218.906572
0
LINE
8
Panel
10
105.112262
20
218.906572
11
104.791793
21
217.874176
0
LINE
8
Panel
10
104.791793
20
217.874176
11
104.284708
21
216.939929
0
LINE
8
Panel
10
104.284708
20
216.939929
11
103.613123
21
216.125948
0
LINE
8
Panel
10
103.613123
20
216.125948
11
102.799153
21
215.454348
0
LINE
8
Panel
10
102.799153
20
215.454348
11
101.864916
21
214.947246
0
LINE
8
Panel
10
101.864916
20
214.947246
11
100.832526
21
214.626758
0
LINE
8
Panel
10
100.832526
20
214.626758
11
99.724100
21
214.515000
0
LINE
8
Panel
10
99.724100
20
214.515000
11
98.646035
21
214.621589
0
LINE
8
Panel
10
98.646035
20
214.621589
11
97.619218
21
214.933548
0
LINE
8
Panel
10
97.619218
20
214.933548
11
96.672506
21
215.438925
0
LINE
8
Panel
10
96.672506
20
215.438925
11
95.834754
21
216.125771
0
LINE
8
Panel
10
95.834754
20
216.125771
11
95.147847
21
216.963473
0
LINE
8
Panel
10
95.147847
20
216.963473
11
94.642401
21
217.910149
0
LINE
8
Panel
10
94.642401
20
217.910149
11
94.330367
21
218.936943
0
LINE
8
Panel
10
94.330367
20
218.936943
11
94.223700
21
220.015000
0
LINE
8
Panel
10
94.223700
20
220.015000
11
94.335626
21
221.123341
0
LINE
8
Panel
10
94.335626
20
221.123341
11
94.656246
21
222.155624
0
LINE
8
Panel
10
94.656246
20
222.155624
11
95.163445
21
223.089741
0
LINE
8
Panel
10
95.163445
20
223.089741
11
95.835108
21
223.903582
0
LINE
8
Panel
10
95.835108
20
223.903582
11
96.649120
21
224.575038
0
LINE
8
Panel
10
96.649120
20
224.575038
11
97.583366
21
225.081999
0
LINE
8
Panel
10
97.583366
20
225.081999
11
98.615731
21
225.402356
0
LINE
8
Panel
10
98.615731
20
225.402356
11
99.724100
21
225.514000
0
LINE
8
Panel
10
99.724100
20
225.514000
11
99.724100
21
225.514000
0
LINE
8
Panel
10
120.030000
20
225.514000
11
121.138307
21
225.402287
0
LINE
8
Panel
10
121.138307
20
225.402287
11
122.170606
21
225.081884
0
LINE
8
Panel
10
122.170606
20
225.081884
11
123.104785
21
224.574900
0
LINE
8
Panel
10
123.104785
20
224.574900
11
123.918734
21
223.903441
0
LINE
8
Panel
10
123.918734
20
223.903441
11
124.590341
21
223.089614
0
LINE
8
Panel
10
124.590341
20
223.089614
11
125.097495
21
222.155527
0
LINE
8
Panel
10
125.097495
20
222.155527
11
125.418085
21
221.123287
0
LINE
8
Panel
10
125.418085
20
221.123287
11
125.530000
21
220.015000
0
LINE
8
Panel
10
125.530000
20
220.015000
11
125.423343
21
218.936993
0
LINE
8
Panel
10
125.423343
20
218.936993
11
125.111337
21
217.910241
0
LINE
8
Panel
10
125.111337
20
217.910241
11
124.605935
21
216.963597
0
LINE
8
Panel
10
124.605935
20
216.963597
11
123.919087
21
216.125913
0
LINE
8
Panel
10
123.919087
20
216.125913
11
123.081403
21
215.439065
0
LINE
8
Panel
10
123.081403
20
215.439065
11
122.134759
21
214.933663
0
LINE
8
Panel
10
122.134759
20
214.933663
11
121.108007
21
214.621657
0
LINE
8
Panel
10
121.108007
20
214.621657
11
120.030000
21
214.515000
0
LINE
8
Panel
10
120.030000
20
214.515000
11
118.951993
21
214.621657
0
LINE
8
Panel
10
118.951993
20
214.621657
11
117.925241
21
214.933663
0
LINE
8
Panel
10
117.925241
20
214.933663
11
116.978597
21
215.439065
0
LINE
8
Panel
10
116.978597
20
215.439065
11
116.140913
21
216.125913
0
LINE
8
Panel
10
116.140913
20
216.125913
11
115.454065
21
216.963597
0
LINE
8
Panel
10
115.454065
20
216.963597
11
114.948663
21
217.910241
0
LINE
8
Panel
10
114.948663
20
217.910241
11
114.636657
21
218.936993
0
LINE
8
Panel
10
114.636657
20
218.936993
11
114.530000
21
220.015000
0
LINE
8
Panel
10
114.530000
20
220.015000
11
114.641915
21
221.123287
0
LINE
8
Panel
10
114.641915
20
221.123287
11
114.962505
21
222.155527
0
LINE
8
Panel
10
114.962505
20
222.155527
11
115.469659
21
223.089614
0
LINE
8
Panel
10
115.469659
20
223.089614
11
116.141266
21
223.903441
0
LINE
8
Panel
10
116.141266
20
223.903441
11
116.955215
21
224.574900
0
LINE
8
Panel
10
116.955215
20
224.574900
11
117.889394
21
225.081884
0
LINE
8
Panel
10
117.889394
20
225.081884
11
118.921693
21
225.402287
0
LINE
8
Panel
10
118.921693
20
225.402287
11
120.030000
21
225.514000
0
LINE
8
Panel
10
120.030000
20
225.514000
11
120.030000
21
225.514000
0
LINE
8
Panel
10
139.724000
20
225.514000
11
140.832307
21
225.402287
0
LINE
8
Panel
10
140.832307
20
225.402287
11
141.864606
21
225.081884
0
LINE
8
Panel
10
141.864606
20
225.081884
11
142.798785
21
224.574900
0
LINE
8
Panel
10
142.798785
20
224.574900
11
143.612734
21
223.903441
0
LINE
8
Panel
10
143.612734
20
223.903441
11
144.284341
21
223.089614
0
LINE
8
Panel
10
144.284341
20
223.089614
11
144.791495
21
222.155527
0
LINE
8
Panel
10
144.791495
20
222.155527
11
145.112085
21
221.123287
0
LINE
8
Panel
10
145.112085
20
221.123287
11
145.224000
21
220.015000
0
LINE
8
Panel
10
145.224000
20
220.015000
11
145.117343
21
218.936993
0
LINE
8
Panel
10
145.117343
20
218.936993
11
144.805337
21
217.910241
0
LINE
8
Panel
10
144.805337
20
217.910241
11
144.299935
21
216.963597
0
LINE
8
Panel
10
144.299935
20
216.963597
11
143.613087
21
216.125913
0
LINE
8
Panel
10
143.613087
20
216.125913
11
142.775403
21
215.439065
0
LINE
8
Panel
10
142.775403
20
215.439065
11
141.828759
21
214.933663
0
LINE
8
Panel
10
141.828759
20
214.933663
11
140.802007
21
214.621657
0
LINE
8
Panel
10
140.802007
20
214.621657
11
139.724000
21
214.515000
0
LINE
8
Panel
10
139.724000
20
214.515000
11
138.645993
21
214.621657
0
LINE
8
Panel
10
138.645993
20
214.621657
11
137.619241
21
214.933663
0
LINE
8
Panel
10
137.619241
20
214.933663
11
136.672597
21
215.439065
0
LINE
8
Panel
10
136.672597
20
215.439065
11
135.834913
21
216.125913
0
LINE
8
Panel
10
135.834913
20
216.125913
11
135.148065
21
216.963597
0
LINE
8
Panel
10
135.148065
20
216.963597
11
134.642663
21
217.910241
0
LINE
8
Panel
10
134.642663
20
217.910241
11
134.330657
21
218.936993
0
LINE
8
Panel
10
134.330657
20
218.936993
11
134.224000
21
220.015000
0
LINE
8
Panel
10
134.224000
20
220.015000
11
134.335915
21
221.123287
0
LINE
8
Panel
10
134.335915
20
221.123287
11
134.656505
21
222.155527
0
LINE
8
Panel
10
134.656505
20
222.155527
11
135.163659
21
223.089614
0
LINE
8
Panel
10
135.163659
20
223.089614
11
135.835266
21
223.903441
0
LINE
8
Panel
10
135.835266
20
223.903441
11
136.649215
21
224.574900
0
LINE
8
Panel
10
136.649215
20
224.574900
11
137.583394
21
225.081884
0
LINE
8
Panel
10
137.583394
20
225.081884
11
138.615693
21
225.402287
0
LINE
8
Panel
10
138.615693
20
225.402287
11
139.724000
21
225.514000
0
LINE
8
Panel
10
139.724000
20
225.514000
11
139.724000
21
225.514000
0
LINE
8
Panel
10
70.030400
20
192.540000
11
71.178542
21
192.311725
0
LINE
8
Panel
10
71.178542
20
192.311725
11
72.151914
21
191.661426
0
LINE
8
Panel
10
72.151914
20
191.661426
11
72.802310
21
190.688120
0
LINE
8
Panel
10
72.802310
20
190.688120
11
73.030700
21
189.540000
0
LINE
8
Panel
10
73.030700
20
189.540000
11
72.802310
21
188.391880
0
LINE
8
Panel
10
72.802310
20
188.391880
11
72.151914
21
187.418574
0
LINE
8
Panel
10
72.151914
20
187.418574
11
71.178542
21
186.768275
0
LINE
8
Panel
10
71.178542
20
186.768275
11
70.030400
21
186.540000
0
LINE
8
Panel
10
70.030400
20
186.540000
11
68.862697
21
186.775784
0
LINE
8
Panel
10
68.862697
20
186.775784
11
67.909144
21
187.418715
0
LINE
8
Panel
10
67.909144
20
187.418715
11
67.266245
21
188.372289
0
LINE
8
Panel
10
67.266245
20
188.372289
11
67.030500
21
189.540000
0
LINE
8
Panel
10
67.030500
20
189.540000
11
67.266245
21
190.707711
0
LINE
8
Panel
10
67.266245
20
190.707711
11
67.909144
21
191.661285
0
LINE
8
Panel
10
67.909144
20
191.661285
11
68.862697
21
192.304216
0
LINE
8
Panel
10
68.862697
20
192.304216
11
70.030400
21
192.540000
0
LINE
8
Panel
10
70.030400
20
192.540000
11
70.030400
21
192.540000
0
LINE
8
Panel
10
110.030000
20
192.540000
11
111.178050
21
192.311639
0
LINE
8
Panel
10
111.178050
20
192.311639
11
112.151320
21
191.661320
0
LINE
8
Panel
10
112.151320
20
191.661320
11
112.801639
21
190.688050
0
LINE
8
Panel
10
112.801639
20
190.688050
11
113.030000
21
189.540000
0
LINE
8
Panel
10
113.030000
20
189.540000
11
112.801639
21
188.391950
0
LINE
8
Panel
10
112.801639
20
188.391950
11
112.151320
21
187.418680
0
LINE
8
Panel
10
112.151320
20
187.418680
11
111.178050
21
186.768361
0
LINE
8
Panel
10
111.178050
20
186.768361
11
110.030000
21
186.540000
0
LINE
8
Panel
10
110.030000
20
186.540000
11
108.862586
21
186.776043
0
LINE
8
Panel
10
108.862586
20
186.776043
11
107.909326
21
187.419033
0
LINE
8
Panel
10
107.909326
20
187.419033
11
107.266654
21
188.372507
0
LINE
8
Panel
10
107.266654
20
188.372507
11
107.031000
21
189.540000
0
LINE
8
Panel
10
107.031000
20
189.540000
11
107.266654
21
190.707493
0
LINE
8
Panel
10
107.266654
20
190.707493
11
107.909326
21
191.660967
0
LINE
8
Panel
10
107.909326
20
191.660967
11
108.862586
21
192.303957
0
LINE
8
Panel
10
108.862586
20
192.303957
11
110.030000
21
192.540000
0
LINE
8
Panel
10
110.030000
20
192.540000
11
110.030000
21
192.540000
0
LINE
8
Panel
10
139.724000
20
192.540000
11
140.872050
21
192.311639
0
LINE
8
Panel
10
140.872050
20
192.311639
11
141.845320
21
191.661320
0
LINE
8
Panel
10
141.845320
20
191.661320
11
142.495639
21
190.688050
0
LINE
8
Panel
10
142.495639
20
190.688050
11
142.724000
21
189.540000
0
LINE
8
Panel
10
142.724000
20
189.540000
11
142.495639
21
188.391950
0
LINE
8
Panel
10
142.495639
20
188.391950
11
141.845320
21
187.418680
0
LINE
8
Panel
10
141.845320
20
187.418680
11
140.872050
21
186.768361
0
LINE
8
Panel
10
140.872050
20
186.768361
11
139.724000
21
186.540000
0
LINE
8
Panel
10
139.724000
20
186.540000
11
138.575950
21
186.768361
0
LINE
8
Panel
10
138.575950
20
186.768361
11
137.602680
21
187.418680
0
LINE
8
Panel
10
137.602680
20
187.418680
11
136.952361
21
188.391950
0
LINE
8
Panel
10
136.952361
20
188.391950
11
136.724000
21
189.540000
0
LINE
8
Panel
10
136.724000
20
189.540000
11
136.952361
21
190.688050
0
LINE
8
Panel
10
136.952361
20
190.688050
11
137.602680
21
191.661320
0
LINE
8
Panel
10
137.602680
20
191.661320
11
138.575950
21
192.311639
0
LINE
8
Panel
10
138.575950
20
192.311639
11
139.724000
21
192.540000
0
LINE
8
Panel
10
139.724000
20
192.540000
11
139.724000
21
192.540000
0
LINE
8
Panel
10
59.724000
20
164.365000
11
60.731628
21
164.263365
0
LINE
8
Panel
10
60.731628
20
164.263365
11
61.670129
21
163.971989
0
LINE
8
Panel
10
61.670129
20
163.971989
11
62.519401
21
163.510975
0
LINE
8
Panel
10
62.519401
20
163.510975
11
63.259340
21
162.900428
0
LINE
8
Panel
10
63.259340
20
162.900428
11
63.869843
21
162.160452
0
LINE
8
Panel
10
63.869843
20
162.160452
11
64.330806
21
161.311153
0
LINE
8
Panel
10
64.330806
20
161.311153
11
64.622126
21
160.372634
0
LINE
8
Panel
10
64.622126
20
160.372634
11
64.723700
21
159.365000
0
LINE
8
Panel
10
64.723700
20
159.365000
11
64.622126
21
158.357366
0
LINE
8
Panel
10
64.622126
20
158.357366
11
64.330806
21
157.418847
0
LINE
8
Panel
10
64.330806
20
157.418847
11
63.869843
21
156.569548
0
LINE
8
Panel
10
63.869843
20
156.569548
11
63.259340
21
155.829572
0
LINE
8
Panel
10
63.259340
20
155.829572
11
62.519401
21
155.219025
0
LINE
8
Panel
10
62.519401
20
155.219025
11
61.670129
21
154.758011
0
LINE
8
Panel
10
61.670129
20
154.758011
11
60.731628
21
154.466635
0
LINE
8
Panel
10
60.731628
20
154.466635
11
59.724000
21
154.365000
0
LINE
8
Panel
10
59.724000
20
154.365000
11
58.743965
21
154.461927
0
LINE
8
Panel
10
58.743965
20
154.461927
11
57.810521
21
154.745545
0
LINE
8
Panel
10
57.810521
20
154.745545
11
56.949902
21
155.204989
0
LINE
8
Panel
10
56.949902
20
155.204989
11
56.188337
21
155.829395
0
LINE
8
Panel
10
56.188337
20
155.829395
11
55.563900
21
156.590935
0
LINE
8
Panel
10
55.563900
20
156.590935
11
55.104421
21
157.451537
0
LINE
8
Panel
10
55.104421
20
157.451537
11
54.820766
21
158.384968
0
LINE
8
Panel
10
54.820766
20
158.384968
11
54.723800
21
159.365000
0
LINE
8
Panel
10
54.723800
20
159.365000
11
54.820766
21
160.345032
0
LINE
8
Panel
10
54.820766
20
160.345032
11
55.104421
21
161.278463
0
LINE
8
Panel
10
55.104421
20
161.278463
11
55.563900
21
162.139065
0
LINE
8
Panel
10
55.563900
20
162.139065
11
56.188337
21
162.900605
0
LINE
8
Panel
10
56.188337
20
162.900605
11
56.949902
21
163.525011
0
LINE
8
Panel
10
56.949902
20
163.525011
11
57.810521
21
163.984455
0
LINE
8
Panel
10
57.810521
20
163.984455
11
58.743965
21
164.268073
0
LINE
8
Panel
10
58.743965
20
164.268073
11
59.724000
21
164.365000
0
LINE
8
Panel
10
59.724000
20
164.365000
11
59.724000
21
164.365000
0
LINE
8
Panel
10
79.723800
20
164.365000
11
80.703835
21
164.268073
0
LINE
8
Panel
10
80.703835
20
164.268073
11
81.637279
21
163.984455
0
LINE
8
Panel
10
81.637279
20
163.984455
11
82.497898
21
163.525011
0
LINE
8
Panel
10
82.497898
20
163.525011
11
83.259463
21
162.900605
0
LINE
8
Panel
10
83.259463
20
162.900605
11
83.883900
21
162.139065
0
LINE
8
Panel
10
83.883900
20
162.139065
11
84.343379
21
161.278463
0
LINE
8
Panel
10
84.343379
20
161.278463
11
84.627034
21
160.345032
0
LINE
8
Panel
10
84.627034
20
160.345032
11
84.724000
21
159.365000
0
LINE
8
Panel
10
84.724000
20
159.365000
11
84.627034
21
158.384968
0
LINE
8
Panel
10
84.627034
20
158.384968
11
84.343379
21
157.451537
0
LINE
8
Panel
10
84.343379
20
157.451537
11
83.883900
21
156.590935
0
LINE
8
Panel
10
83.883900
20
156.590935
11
83.259463
21
155.829395
0
LINE
8
Panel
10
83.259463
20
155.829395
11
82.497898
21
155.204989
0
LINE
8
Panel
10
82.497898
20
155.204989
11
81.637279
21
154.745545
0
LINE
8
Panel
10
81.637279
20
154.745545
11
80.703835
21
154.461927
0
LINE
8
Panel
10
80.703835
20
154.461927
11
79.723800
21
154.365000
0
LINE
8
Panel
10
79.723800
20
154.365000
11
78.716172
21
154.466635
0
LINE
8
Panel
10
78.716172
20
154.466635
11
77.777671
21
154.758011
0
LINE
8
Panel
10
77.777671
20
154.758011
11
76.928399
21
155.219025
0
LINE
8
Panel
10
76.928399
20
155.219025
11
76.188460
21
155.829572
0
LINE
8
Panel
10
76.188460
20
155.829572
11
75.577957
21
156.569548
0
LINE
8
Panel
10
75.577957
20
156.569548
11
75.116994
21
157.418847
0
LINE
8
Panel
10
75.116994
20
157.418847
11
74.825674
21
158.357366
0
LINE
8
Panel
10
74.825674
20
158.357366
11
74.724100
21
159.365000
0
LINE
8
Panel
10
74.724100
20
159.365000
11
74.825674
21
160.372634
0
LINE
8
Panel
10
74.825674
20
160.372634
11
75.116994
21
161.311153
0
LINE
8
Panel
10
75.116994
20
161.311153
11
75.577957
21
162.160452
0
LINE
8
Panel
10
75.577957
20
162.160452
11
76.188460
21
162.900428
0
LINE
8
Panel
10
76.188460
20
162.900428
11
76.928399
21
163.510975
0
LINE
8
Panel
10
76.928399
20
163.510975
11
77.777671
21
163.971989
0
LINE
8
Panel
10
77.777671
20
163.971989
11
78.716172
21
164.263365
0
LINE
8
Panel
10
78.716172
20
164.263365
11
79.723800
21
164.365000
0
LINE
8
Panel
10
79.723800
20
164.365000
11
79.723800
21
164.365000
0
LINE
8
Panel
10
99.724100
20
164.365000
11
100.731759
21
164.263400
0
LINE
8
Panel
10
100.731759
20
164.263400
11
101.670294
21
163.972046
0
LINE
8
Panel
10
101.670294
20
163.972046
11
102.519599
21
163.511044
0
LINE
8
Panel
10
102.519599
20
163.511044
11
103.259569
21
162.900499
0
LINE
8
Panel
10
103.259569
20
162.900499
11
103.870100
21
162.160516
0
LINE
8
Panel
10
103.870100
20
162.160516
11
104.331085
21
161.311201
0
LINE
8
Panel
10
104.331085
20
161.311201
11
104.622420
21
160.372661
0
LINE
8
Panel
10
104.622420
20
160.372661
11
104.724000
21
159.365000
0
LINE
8
Panel
10
104.724000
20
159.365000
11
104.622420
21
158.357339
0
LINE
8
Panel
10
104.622420
20
158.357339
11
104.331085
21
157.418799
0
LINE
8
Panel
10
104.331085
20
157.418799
11
103.870100
21
156.569484
0
LINE
8
Panel
10
103.870100
20
156.569484
11
103.259569
21
155.829501
0
LINE
8
Panel
10
103.259569
20
155.829501
11
102.519599
21
155.218956
0
LINE
8
Panel
10
102.519599
20
155.218956
11
101.670294
21
154.757954
0
LINE
8
Panel
10
101.670294
20
154.757954
11
100.731759
21
154.466600
0
LINE
8
Panel
10
100.731759
20
154.466600
11
99.724100
21
154.365000
0
LINE
8
Panel
10
99.724100
20
154.365000
11
98.744065
21
154.461927
0
LINE
8
Panel
10
98.744065
20
154.461927
11
97.810621
21
154.745545
0
LINE
8
Panel
10
97.810621
20
154.745545
11
96.950002
21
155.204989
0
LINE
8
Panel
10
96.950002
20
155.204989
11
96.188437
21
155.829395
0
LINE
8
Panel
10
96.188437
20
155.829395
11
95.564000
21
156.590935
0
LINE
8
Panel
10
95.564000
20
156.590935
11
95.104521
21
157.451537
0
LINE
8
Panel
10
95.104521
20
157.451537
11
94.820866
21
158.384968
0
LINE
8
Panel
10
94.820866
20
158.384968
11
94.723900
21
159.365000
0
LINE
8
Panel
10
94.723900
20
159.365000
11
94.820866
21
160.345032
0
LINE
8
Panel
10
94.820866
20
160.345032
11
95.104521
21
161.278463
0
LINE
8
Panel
10
95.104521
20
161.278463
11
95.564000
21
162.139065
0
LINE
8
Panel
10
95.564000
20
162.139065
11
96.188437
21
162.900605
0
LINE
8
Panel
10
96.188437
20
162.900605
11
96.950002
21
163.525011
0
LINE
8
Panel
10
96.950002
20
163.525011
11
97.810621
21
163.984455
0
LINE
8
Panel
10
97.810621
20
163.984455
11
98.744065
21
164.268073
0
LINE
8
Panel
10
98.744065
20
164.268073
11
99.724100
21
164.365000
0
LINE
8
Panel
10
99.724100
20
164.365000
11
99.724100
21
164.365000
0
LINE
8
Panel
10
120.030000
20
164.365000
11
121.010150
21
164.268210
0
LINE
8
Panel
10
121.010150
20
164.268210
11
121.943724
21
163.984685
0
LINE
8
Panel
10
121.943724
20
163.984685
11
122.804481
21
163.525289
0
LINE
8
Panel
10
122.804481
20
163.525289
11
123.566180
21
162.900888
0
LINE
8
Panel
10
123.566180
20
162.900888
11
124.190734
21
162.139313
0
LINE
8
Panel
10
124.190734
20
162.139313
11
124.650302
21
161.278648
0
LINE
8
Panel
10
124.650302
20
161.278648
11
124.934014
21
160.345131
0
LINE
8
Panel
10
124.934014
20
160.345131
11
125.031000
21
159.365000
0
LINE
8
Panel
10
125.031000
20
159.365000
11
124.934014
21
158.384869
0
LINE
8
Panel
10
124.934014
20
158.384869
11
124.650302
21
157.451352
0
LINE
8
Panel
10
124.650302
20
157.451352
11
124.190734
21
156.590687
0
LINE
8
Panel
10
124.190734
20
156.590687
11
123.566180
21
155.829112
0
LINE
8
Panel
10
123.566180
20
155.829112
11
122.804481
21
155.204711
0
LINE
8
Panel
10
122.804481
20
155.204711
11
121.943724
21
154.745315
0
LINE
8
Panel
10
121.943724
20
154.745315
11
121.010150
21
154.461790
0
LINE
8
Panel
10
121.010150
20
154.461790
11
120.030000
21
154.365000
0
LINE
8
Panel
10
120.030000
20
154.365000
11
119.022481
21
154.466757
0
LINE
8
Panel
10
119.022481
20
154.466757
11
118.084095
21
154.758213
0
LINE
8
Panel
10
118.084095
20
154.758213
11
117.234940
21
155.219267
0
LINE
8
Panel
10
117.234940
20
155.219267
11
116.495113
21
155.829820
0
LINE
8
Panel
10
116.495113
20
155.829820
11
115.884708
21
156.569770
0
LINE
8
Panel
10
115.884708
20
156.569770
11
115.423823
21
157.419017
0
LINE
8
Panel
10
115.423823
20
157.419017
11
115.132555
21
158.357460
0
LINE
8
Panel
10
115.132555
20
158.357460
11
115.031000
21
159.365000
0
LINE
8
Panel
10
115.031000
20
159.365000
11
115.132555
21
160.372540
0
LINE
8
Panel
10
115.132555
20
160.372540
11
115.423823
21
161.310983
0
LINE
8
Panel
10
115.423823
20
161.310983
11
115.884708
21
162.160230
0
LINE
8
Panel
10
115.884708
20
162.160230
11
116.495113
21
162.900180
0
LINE
8
Panel
10
116.495113
20
162.900180
11
117.234940
21
163.510733
0
LINE
8
Panel
10
117.234940
20
163.510733
11
118.084095
21
163.971787
0
LINE
8
Panel
10
118.084095
20
163.971787
11
119.022481
21
164.263243
0
LINE
8
Panel
10
119.022481
20
164.263243
11
120.030000
21
164.365000
0
LINE
8
Panel
10
120.030000
20
164.365000
11
120.030000
21
164.365000
0
LINE
8
Panel
10
57.499800
20
142.668000
11
57.954669
21
142.576363
0
LINE
8
Panel
10
57.954669
20
142.576363
11
58.326195
21
142.326102
0
LINE
8
Panel
10
58.326195
20
142.326102
11
58.576774
21
141.954790
0
LINE
8
Panel
10
58.576774
20
141.954790
11
58.668800
21
141.500000
0
LINE
8
Panel
10
58.668800
20
141.500000
11
58.576774
21
141.045210
0
LINE
8
Panel
10
58.576774
20
141.045210
11
58.326195
21
140.673898
0
LINE
8
Panel
10
58.326195
20
140.673898
11
57.954669
21
140.423637
0
LINE
8
Panel
10
57.954669
20
140.423637
11
57.499800
21
140.332000
0
LINE
8
Panel
10
57.499800
20
140.332000
11
57.045124
21
140.423810
0
LINE
8
Panel
10
57.045124
20
140.423810
11
56.673793
21
140.674110
0
LINE
8
Panel
10
56.673793
20
140.674110
11
56.423366
21
141.045355
0
LINE
8
Panel
10
56.423366
20
141.045355
11
56.331400
21
141.500000
0
LINE
8
Panel
10
56.331400
20
141.500000
11
56.423366
21
141.954645
0
LINE
8
Panel
10
56.423366
20
141.954645
11
56.673793
21
142.325890
0
LINE
8
Panel
10
56.673793
20
142.325890
11
57.045124
21
142.576190
0
LINE
8
Panel
10
57.045124
20
142.576190
11
57.499800
21
142.668000
0
LINE
8
Panel
10
57.499800
20
142.668000
11
57.499800
21
142.668000
0
LINE
8
Panel
10
143.690000
20
142.668000
11
144.144548
21
142.576075
0
LINE
8
Panel
10
144.144548
20
142.576075
11
144.515749
21
142.325749
0
LINE
8
Panel
10
144.515749
20
142.325749
11
144.766075
21
141.954548
0
LINE
8
Panel
10
144.766075
20
141.954548
11
144.858000
21
141.500000
0
LINE
8
Panel
10
144.858000
20
141.500000
11
144.766075
21
141.045452
0
LINE
8
Panel
10
144.766075
20
141.045452
11
144.515749
21
140.674251
0
LINE
8
Panel
10
144.515749
20
140.674251
11
144.144548
21
140.423925
0
LINE
8
Panel
10
144.144548
20
140.423925
11
143.690000
21
140.332000
0
LINE
8
Panel
10
143.690000
20
140.332000
11
143.235452
21
140.423925
0
LINE
8
Panel
10
143.235452
20
140.423925
11
142.864251
21
140.674251
0
LINE
8
Panel
10
142.864251
20
140.674251
11
142.613925
21
141.045452
0
LINE
8
Panel
10
142.613925
20
141.045452
11
142.522000
21
141.500000
0
LINE
8
Panel
10
142.522000
20
141.500000
11
142.613925
21
141.954548
0
LINE
8
Panel
10
142.613925
20
141.954548
11
142.864251
21
142.325749
0
LINE
8
Panel
10
142.864251
20
142.325749
11
143.235452
21
142.576075
0
LINE
8
Panel
10
143.235452
20
142.576075
11
143.690000
21
142.668000
0
LINE
8
Panel
10
143.690000
20
142.668000
11
143.690000
21
142.668000
 0 
ENDSEC
 0 
EOF